# File created by Blade
# Date/Time:  Thu Jan 15 17:55:17 2015
#---------------------------------------------------------
:version 1.10
:name HOM
:units
  mass 1.0
  length 1.000000
  angle deg
:documentation
     Acclaim Skeleton File
:root
   axis xyz
   order TX TY TZ RX RY RZ
   position 0.000000 0.000000 0.000000
   orientation 0 0 0
:bonedata
   begin
      id 1
      name Spine_dum
      direction 0.000000 1.000000 0.000000
      length 5.015652
      axis 0.0 0.0 0.0 xyz
   end
   begin
      id 2
      name LeftUpLeg_dum
      direction 1.000000 0.000000 0.000000
      length 4.275145
      axis 0.0 0.0 0.0 xyz
   end
   begin
      id 3
      name RightUpLeg_dum
      direction -1.000000 0.000000 0.000000
      length 4.275145
      axis 0.0 0.0 0.0 xyz
   end
   begin
      id 4
      name Spine
      direction 0.000000 1.000000 0.000000
      length 0.000000
      axis 0.0 0.0 0.0 xyz
      dof rx ry rz
   end
   begin
      id 5
      name Spine_dum1
      direction 0.000000 1.000000 0.000000
      length 15.980521
      axis 0.0 0.0 0.0 xyz
   end
   begin
      id 6
      name Spine_dum2
      direction 0.000000 1.000000 0.000000
      length 12.162712
      axis 0.0 0.0 0.0 xyz
   end
   begin
      id 7
      name Spine_dum3
      direction 0.000000 1.000000 0.000000
      length 12.162712
      axis 0.0 0.0 0.0 xyz
   end
   begin
      id 8
      name Head
      direction 0.000000 1.000000 0.000000
      length 4.527550
      axis 0.0 0.0 0.0 xyz
      dof rx ry rz
   end
   begin
      id 9
      name LeftShoulder
      direction 1.000000 0.000000 0.000000
      length 7.205867
      axis 0.0 0.0 -90.0 xyz
      dof rx ry rz
   end
   begin
      id 10
      name LeftArm
      direction 1.000000 0.000000 0.000000
      length 10.786708
      axis 0.0 0.0 -90.0 xyz
      dof rx ry rz
   end
   begin
      id 11
      name LeftForeArm
      direction 1.000000 0.000000 0.000000
      length 7.946034
      axis 0.0 0.0 -90.0 xyz
      dof rz ry rx
   end
   begin
      id 12
      name LeftHand
      direction 0.000000 0.000000 0.000000
      length 0.000000
      axis 0.0 0.0 -90.0 xyz
      dof rx ry rz
   end
   begin
      id 13
      name LeftHand_dum1
      direction 0.000000 0.000000 0.000000
      length 0.000000
      axis 0.0 0.0 -90.0 xyz
   end
   begin
      id 14
      name LeftHand_dum2
      direction 1.000000 0.000000 0.000000
      length 3.937000
      axis 0.0 0.0 -90.0 xyz
   end
   begin
      id 15
      name LeftHandThumb1
      direction 0.000000 0.000000 1.000000
      length 3.937000
      axis 0.0 0.0 -90.0 xyz
      dof rx ry rz
   end
   begin
      id 16
      name RightShoulder
      direction -1.000000 0.000000 0.000000
      length 7.205867
      axis 0.0 0.0 90.0 xyz
      dof rx ry rz
   end
   begin
      id 17
      name RightArm
      direction -1.000000 0.000000 0.000000
      length 10.786708
      axis 0.0 0.0 90.0 xyz
      dof rx ry rz
   end
   begin
      id 18
      name RightForeArm
      direction -1.000000 0.000000 0.000000
      length 7.946034
      axis 0.0 0.0 90.0 xyz
      dof rz ry rx
   end
   begin
      id 19
      name RightHand
      direction 0.000000 0.000000 0.000000
      length 0.000000
      axis 0.0 0.0 90.0 xyz
      dof rx ry rz
   end
   begin
      id 20
      name RightHand_dum1
      direction 0.000000 0.000000 0.000000
      length 0.000000
      axis 0.0 0.0 90.0 xyz
   end
   begin
      id 21
      name RightHand_dum2
      direction -1.000000 0.000000 0.000000
      length 3.937000
      axis 0.0 0.0 90.0 xyz
   end
   begin
      id 22
      name RightHandThumb1
      direction 0.000000 0.000000 1.000000
      length 3.937000
      axis 0.0 0.0 90.0 xyz
      dof rx ry rz
   end
   begin
      id 23
      name LeftUpLeg
      direction 0.000000 -1.000000 0.000000
      length 17.046659
      axis 0.0 0.0 0.0 xyz
      dof rx ry rz
   end
   begin
      id 24
      name LeftLeg
      direction 0.000000 -1.000000 0.000000
      length 17.458438
      axis 0.0 0.0 0.0 xyz
      dof rx ry rz
   end
   begin
      id 25
      name LeftFoot
      direction 0.000000 -0.258819 0.965926
      length 5.099406
      axis 15.0 0.0 0.0 xyz
      dof rx ry rz
   end
   begin
      id 26
      name LeftToeBase
      direction 0.000000 0.000000 1.000000
      length 2.952750
      axis 0.0 0.0 0.0 xyz
      dof rx ry rz
   end
   begin
      id 27
      name RightUpLeg
      direction 0.000000 -1.000000 0.000000
      length 17.046659
      axis 0.0 0.0 0.0 xyz
      dof rx ry rz
   end
   begin
      id 28
      name RightLeg
      direction 0.000000 -1.000000 0.000000
      length 17.458438
      axis 0.0 0.0 0.0 xyz
      dof rx ry rz
   end
   begin
      id 29
      name RightFoot
      direction 0.000000 -0.258819 0.965926
      length 5.099406
      axis 15.0 0.0 0.0 xyz
      dof rx ry rz
   end
   begin
      id 30
      name RightToeBase
      direction 0.000000 0.000000 1.000000
      length 2.952750
      axis 0.0 0.0 0.0 xyz
      dof rx ry rz
   end
:hierarchy
   begin
      root Spine_dum LeftUpLeg_dum RightUpLeg_dum
      Spine_dum Spine
      LeftUpLeg_dum LeftUpLeg
      RightUpLeg_dum RightUpLeg
      Spine Spine_dum1 Spine_dum2 Spine_dum3
      Spine_dum1 Head
      Spine_dum2 LeftShoulder
      Spine_dum3 RightShoulder
      LeftShoulder LeftArm
      LeftArm LeftForeArm
      LeftForeArm LeftHand
      LeftHand LeftHand_dum1 LeftHand_dum2
      LeftHand_dum1 LeftHandThumb1
      RightShoulder RightArm
      RightArm RightForeArm
      RightForeArm RightHand
      RightHand RightHand_dum1 RightHand_dum2
      RightHand_dum1 RightHandThumb1
      LeftUpLeg LeftLeg
      LeftLeg LeftFoot
      LeftFoot LeftToeBase
      RightUpLeg RightLeg
      RightLeg RightFoot
      RightFoot RightToeBase
   end

# File created by Blade
# Date/Time:  Thu Jan 15 17:55:09 2015
# Frame Rate: 120.000 fps
#------------------------------------------------------
:FULLY-SPECIFIED
:DEGREES
261
root 5.928430 35.876397 -10.805982 6.138000 0.074027 2.295774
Spine -8.807493 -17.384283 -1.401535
Head 5.393547 10.581642 13.174261
LeftShoulder -38.023573 6.458303 21.473963
LeftArm -12.311599 -42.865540 -12.558487
LeftForeArm -0.000000 28.149285 -4.546723
LeftHand -0.311992 -0.000000 6.875262
LeftHandThumb1 -26.253704 33.147579 0.000000
RightShoulder -11.376671 22.923480 -28.880303
RightArm -27.471916 42.094983 1.173298
RightForeArm -0.000000 -54.802787 11.872795
RightHand -6.159976 0.000000 0.451059
RightHandThumb1 -24.326973 -32.862282 -0.000000
LeftUpLeg -3.676040 6.187528 -2.971792
LeftLeg 5.734033 -0.000000 -0.000000
LeftFoot -27.833800 19.970401 -17.172799
LeftToeBase 18.291294 -0.000000 -0.000000
RightUpLeg -0.652355 -14.242219 -3.066835
RightLeg -0.618308 -0.000000 0.000000
RightFoot -22.915467 -24.544084 14.764082
RightToeBase 25.836396 -0.000000 -0.000000
262
root 5.959207 35.877014 -10.825159 6.067529 0.113059 2.327193
Spine -8.581954 -17.485571 -1.457949
Head 5.270288 10.737011 13.084384
LeftShoulder -38.098054 6.566666 20.787768
LeftArm -13.261574 -42.672587 -13.836821
LeftForeArm -0.000000 26.993481 -3.908640
LeftHand -0.709182 -0.000000 6.694695
LeftHandThumb1 -26.253704 33.147579 0.000000
RightShoulder -11.505956 21.964590 -28.511862
RightArm -28.796605 42.933675 2.067792
RightForeArm 0.000000 -53.872407 12.157895
RightHand -6.393804 -0.000000 0.209473
RightHandThumb1 -24.326973 -32.862282 -0.000000
LeftUpLeg -3.852741 5.970891 -3.053945
LeftLeg 6.224733 -0.000000 -0.000000
LeftFoot -28.443769 19.684445 -17.297909
LeftToeBase 18.073184 -0.000000 -0.000000
RightUpLeg -0.732023 -14.341139 -3.160184
RightLeg -0.362288 -0.000000 0.000000
RightFoot -22.973006 -24.462841 14.761719
RightToeBase 25.778191 -0.000000 -0.000000
263
root 5.986647 35.878378 -10.837466 5.966481 0.131534 2.350742
Spine -8.311962 -17.583757 -1.569499
Head 5.103309 10.915065 13.122826
LeftShoulder -38.257400 6.688038 20.166359
LeftArm -13.951410 -43.033180 -15.161938
LeftForeArm -0.000000 26.123053 -3.604976
LeftHand -0.891181 -0.000000 6.707040
LeftHandThumb1 -26.253704 33.147579 0.000000
RightShoulder -11.743913 20.838007 -27.920118
RightArm -29.389634 43.557661 3.449095
RightForeArm -0.000000 -52.807792 12.333211
RightHand -6.934687 -0.000000 -0.038865
RightHandThumb1 -24.326973 -32.862282 -0.000000
LeftUpLeg -3.945399 5.828798 -3.123126
LeftLeg 6.634324 -0.000000 -0.000000
LeftFoot -28.993836 19.343117 -17.358677
LeftToeBase 17.709133 -0.000000 -0.000000
RightUpLeg -0.772905 -14.427312 -3.246486
RightLeg -0.116131 -0.000000 0.000000
RightFoot -23.050356 -24.404580 14.780654
RightToeBase 25.817238 -0.000000 -0.000000
264
root 6.019789 35.880456 -10.851358 5.825716 0.128762 2.382432
Spine -8.013514 -17.708782 -1.682087
Head 4.983725 11.083731 13.155673
LeftShoulder -38.437586 6.801597 19.468422
LeftArm -14.523887 -43.221622 -16.520021
LeftForeArm -0.000000 25.144965 -3.394084
LeftHand -0.889382 -0.000000 6.837446
LeftHandThumb1 -26.253704 33.147579 0.000000
RightShoulder -11.728625 19.819673 -27.272104
RightArm -30.206251 44.055027 4.666816
RightForeArm -0.000000 -52.202993 12.635979
RightHand -7.214518 0.000000 -0.242644
RightHandThumb1 -24.326973 -32.862282 -0.000000
LeftUpLeg -3.972837 5.648733 -3.206942
LeftLeg 6.992377 -0.000000 -0.000000
LeftFoot -29.533136 19.072373 -17.471663
LeftToeBase 17.449671 -0.000000 -0.000000
RightUpLeg -0.806435 -14.515509 -3.360790
RightLeg 0.183753 -0.000000 -0.000000
RightFoot -23.139978 -24.293140 14.835306
RightToeBase 25.821975 -0.000000 -0.000000
265
root 6.056382 35.882035 -10.865357 5.666712 0.114274 2.415610
Spine -7.668099 -17.780948 -1.815208
Head 4.761026 11.192708 13.193182
LeftShoulder -38.675926 6.856855 18.795920
LeftArm -14.796596 -43.322838 -18.045891
LeftForeArm 0.000000 24.184840 -3.341191
LeftHand -1.084933 -0.000000 6.530659
LeftHandThumb1 -26.253704 33.147579 0.000000
RightShoulder -11.875207 18.691703 -26.588010
RightArm -30.526151 44.602828 6.257911
RightForeArm -0.000000 -51.827964 12.867483
RightHand -7.278642 0.000000 -0.404313
RightHandThumb1 -24.326973 -32.862282 -0.000000
LeftUpLeg -3.953819 5.472755 -3.300995
LeftLeg 7.297362 -0.000000 -0.000000
LeftFoot -30.066827 18.825592 -17.591082
LeftToeBase 17.410952 -0.000000 -0.000000
RightUpLeg -0.835126 -14.583795 -3.487529
RightLeg 0.504872 -0.000000 -0.000000
RightFoot -23.244020 -24.199668 14.881912
RightToeBase 25.829299 -0.000000 -0.000000
266
root 6.090358 35.881617 -10.877527 5.519165 0.047811 2.432936
Spine -7.346563 -17.848638 -1.945187
Head 4.541264 11.328244 13.278804
LeftShoulder -38.966359 6.821254 18.125946
LeftArm -15.058050 -43.712062 -19.323449
LeftForeArm -0.000000 24.066862 -3.378379
LeftHand -1.416744 -0.000000 6.270767
LeftHandThumb1 -26.253704 33.147579 0.000000
RightShoulder -12.038143 17.778336 -25.872475
RightArm -30.736444 45.231312 7.805048
RightForeArm -0.000000 -51.588700 13.094398
RightHand -7.672540 -0.000000 -0.624398
RightHandThumb1 -24.326973 -32.862282 -0.000000
LeftUpLeg -3.909628 5.379390 -3.380658
LeftLeg 7.537101 -0.000000 -0.000000
LeftFoot -30.540975 18.657891 -17.660447
LeftToeBase 17.209199 -0.000000 -0.000000
RightUpLeg -0.880978 -14.529772 -3.595876
RightLeg 0.822707 -0.000000 -0.000000
RightFoot -23.355201 -24.183644 14.913959
RightToeBase 25.872741 -0.000000 -0.000000
267
root 6.130659 35.880043 -10.892187 5.367136 -0.035384 2.459844
Spine -7.045545 -17.880044 -2.083710
Head 4.398370 11.375763 13.390714
LeftShoulder -39.226070 6.770437 17.541432
LeftArm -15.155116 -43.801047 -20.851293
LeftForeArm 0.000000 23.435235 -3.393588
LeftHand -1.561200 0.000000 5.806397
LeftHandThumb1 -26.253704 33.147579 0.000000
RightShoulder -12.033987 17.200373 -25.234780
RightArm -31.210510 45.446981 9.205213
RightForeArm -0.000000 -51.243998 13.316486
RightHand -7.593890 -0.000000 -0.587652
RightHandThumb1 -24.326973 -32.862282 -0.000000
LeftUpLeg -3.842199 5.230803 -3.478595
LeftLeg 7.742717 -0.000000 -0.000000
LeftFoot -31.031057 18.573844 -17.736415
LeftToeBase 17.170827 -0.000000 -0.000000
RightUpLeg -0.952318 -14.461744 -3.722785
RightLeg 1.185527 -0.000000 -0.000000
RightFoot -23.489352 -24.170008 14.949452
RightToeBase 25.855789 -0.000000 -0.000000
268
root 6.165928 35.878775 -10.902636 5.193533 -0.148963 2.475414
Spine -6.757240 -17.911179 -2.228731
Head 4.321473 11.420640 13.523559
LeftShoulder -39.471775 6.646052 16.883090
LeftArm -15.348704 -44.291118 -21.965141
LeftForeArm -0.000000 23.678492 -3.490734
LeftHand -1.805236 -0.000000 5.625157
LeftHandThumb1 -26.253704 33.147579 0.000000
RightShoulder -12.015470 16.534465 -24.540734
RightArm -31.681410 46.137877 10.476846
RightForeArm -0.000000 -51.132931 13.568603
RightHand -7.524485 -0.000000 -1.065423
RightHandThumb1 -24.326973 -32.862282 -0.000000
LeftUpLeg -3.723746 5.145623 -3.548572
LeftLeg 7.901564 -0.000000 -0.000000
LeftFoot -31.480932 18.507060 -17.797869
LeftToeBase 17.324017 -0.000000 -0.000000
RightUpLeg -0.994528 -14.294947 -3.834316
RightLeg 1.533708 -0.000000 -0.000000
RightFoot -23.628261 -24.225777 15.014887
RightToeBase 25.832945 -0.000000 -0.000000
269
root 6.203945 35.877166 -10.914446 5.032024 -0.278512 2.484717
Spine -6.487745 -17.886767 -2.354212
Head 4.220783 11.428407 13.619098
LeftShoulder -39.637534 6.500950 16.271121
LeftArm -15.568541 -44.639657 -23.139846
LeftForeArm -0.000000 23.681337 -3.439774
LeftHand -1.924490 -0.000000 4.970731
LeftHandThumb1 -26.253704 33.147579 0.000000
RightShoulder -11.942379 15.982096 -23.840868
RightArm -32.270731 46.775569 11.594626
RightForeArm 0.000000 -50.723045 13.768167
RightHand -7.560761 0.000000 -1.638188
RightHandThumb1 -24.326973 -32.862282 -0.000000
LeftUpLeg -3.596010 5.065423 -3.617780
LeftLeg 8.008048 -0.000000 -0.000000
LeftFoot -31.859030 18.509854 -17.877985
LeftToeBase 17.093181 -0.000000 -0.000000
RightUpLeg -1.076528 -14.159684 -3.940429
RightLeg 1.921283 -0.000000 -0.000000
RightFoot -23.764466 -24.230560 15.080775
RightToeBase 25.827145 -0.000000 -0.000000
270
root 6.242549 35.874194 -10.924150 4.883678 -0.478218 2.495762
Spine -6.246977 -17.849256 -2.494762
Head 4.124053 11.505813 13.779317
LeftShoulder -39.840426 6.252229 15.726211
LeftArm -15.787979 -44.797103 -24.251915
LeftForeArm -0.000000 23.700915 -3.364062
LeftHand -2.214700 -0.000000 4.533091
LeftHandThumb1 -26.253704 33.147579 0.000000
RightShoulder -11.770780 15.560052 -23.070250
RightArm -32.893447 47.403081 12.561642
RightForeArm -0.000000 -50.217370 13.938379
RightHand -7.496298 -0.000000 -2.138123
RightHandThumb1 -24.326973 -32.862282 -0.000000
LeftUpLeg -3.451860 5.144794 -3.701245
LeftLeg 8.054965 -0.000000 -0.000000
LeftFoot -32.198933 18.579844 -17.895523
LeftToeBase 17.044577 -0.000000 -0.000000
RightUpLeg -1.194617 -13.957926 -4.049856
RightLeg 2.331359 -0.000000 -0.000000
RightFoot -23.927773 -24.245357 15.122467
RightToeBase 25.881979 -0.000000 -0.000000
271
root 6.282568 35.872347 -10.936599 4.730692 -0.679367 2.513659
Spine -5.976293 -17.748845 -2.651487
Head 3.953027 11.522834 13.923708
LeftShoulder -39.970239 6.021907 15.113422
LeftArm -15.930670 -45.041989 -25.379154
LeftForeArm -0.000000 23.483186 -3.287664
LeftHand -2.292273 -0.000000 4.142027
LeftHandThumb1 -26.253704 33.147579 0.000000
RightShoulder -11.666569 15.072073 -22.274584
RightArm -33.300428 48.012817 13.671107
RightForeArm -0.000000 -49.485755 13.997392
RightHand -7.337037 0.000000 -2.449005
RightHandThumb1 -24.326973 -32.862282 -0.000000
LeftUpLeg -3.236905 5.067668 -3.779328
LeftLeg 7.964341 -0.000000 -0.000000
LeftFoot -32.453503 18.767031 -17.920383
LeftToeBase 17.119069 -0.000000 -0.000000
RightUpLeg -1.321863 -13.726134 -4.168183
RightLeg 2.762950 -0.000000 -0.000000
RightFoot -24.043314 -24.278242 15.143082
RightToeBase 25.790556 -0.000000 -0.000000
272
root 6.323908 35.870460 -10.947883 4.600856 -0.902250 2.550390
Spine -5.744938 -17.600867 -2.840232
Head 3.788774 11.504145 14.108775
LeftShoulder -39.996191 5.752356 14.621041
LeftArm -16.190997 -45.257569 -26.444662
LeftForeArm -0.000000 23.322219 -3.214223
LeftHand -2.377079 -0.000000 3.726406
LeftHandThumb1 -26.253704 33.147579 0.000000
RightShoulder -11.584984 14.524882 -21.375496
RightArm -33.494201 48.671477 14.796907
RightForeArm -0.000000 -48.822646 13.978199
RightHand -7.349286 -0.000000 -2.760000
RightHandThumb1 -24.326973 -32.862282 -0.000000
LeftUpLeg -3.041040 5.003508 -3.876799
LeftLeg 7.866566 -0.000000 -0.000000
LeftFoot -32.677029 18.914395 -18.014950
LeftToeBase 17.249799 -0.000000 -0.000000
RightUpLeg -1.498792 -13.499110 -4.299425
RightLeg 3.231758 -0.000000 -0.000000
RightFoot -24.203328 -24.304906 15.175314
RightToeBase 25.829817 -0.000000 -0.000000
